<?xml version="1.0" encoding="UTF-8" standalone="no"?><!DOCTYPE svg PUBLIC "-//W3C//DTD SVG 1.1//EN" "http://www.w3.org/Graphics/SVG/1.1/DTD/svg11.dtd"><svg width="100%" height="100%" viewBox="0 0 118 193" version="1.1" xmlns="http://www.w3.org/2000/svg" xmlns:xlink="http://www.w3.org/1999/xlink" xml:space="preserve" xmlns:serif="http://www.serif.com/" style="fill-rule:evenodd;clip-rule:evenodd;stroke-linejoin:round;stroke-miterlimit:2;"><g><path d="M115.776,70.414c-0.781,-0.781 -2.048,-0.781 -2.829,0l-111.723,111.723c-0.78,0.78 -0.78,2.048 0,2.828c0.781,0.781 2.048,0.781 2.829,0l111.723,-111.723c0.78,-0.78 0.78,-2.048 0,-2.828Z" style="fill:#01d277;fill-opacity:0.83;"/><path d="M146.776,-64.586c-0.781,-0.78 -2.048,-0.78 -2.829,0l-111.723,111.723c-0.78,0.781 -0.78,2.048 0,2.829c0.781,0.78 2.048,0.78 2.829,0l111.723,-111.723c0.78,-0.781 0.78,-2.048 0,-2.829Z" style="fill:#01d277;fill-opacity:0.83;"/><path d="M146.776,-91.586c-0.781,-0.78 -2.048,-0.78 -2.829,0l-111.723,111.723c-0.78,0.781 -0.78,2.048 0,2.829c0.781,0.78 2.048,0.78 2.829,0l111.723,-111.723c0.78,-0.781 0.78,-2.048 0,-2.829Z" style="fill:#01d277;fill-opacity:0.83;"/></g></svg>